<svg width="32" height="33" viewBox="0 0 32 33" fill="none" xmlns="http://www.w3.org/2000/svg">
<rect y="0.407227" width="32" height="31.8418" rx="6" fill="#8C96A0"/>
<g clip-path="url(#clip0_12_28)">
<path d="M18.9221 8.57963L11.6494 15.8166C11.513 15.9523 11.4364 16.1364 11.4364 16.3283C11.4364 16.5203 11.5131 16.7043 11.6494 16.84L18.9222 24.0766C19.2062 24.3592 19.6667 24.3592 19.9507 24.0766C20.2347 23.794 20.2347 23.3358 19.9507 23.0532L13.1922 16.3283L19.9507 9.60305C20.0927 9.46174 20.1637 9.27653 20.1637 9.09131C20.1637 8.9061 20.0927 8.72089 19.9506 8.57958C19.6666 8.297 19.2061 8.297 18.9221 8.57963Z" fill="white"/>
</g>
<defs>
<clipPath id="clip0_12_28">
<rect width="15.9209" height="16" fill="white" transform="matrix(0 -1 1 0 7 24.2886)"/>
</clipPath>
</defs>
</svg>
