<svg width="32" height="33" viewBox="0 0 32 33" fill="none" xmlns="http://www.w3.org/2000/svg">
<rect x="32" y="32.249" width="32" height="31.8418" rx="6" transform="rotate(180 32 32.249)" fill="#8856D9"/>
<g clip-path="url(#clip0_12_29)">
<path d="M14.0779 24.0766L21.3507 16.8397C21.487 16.704 21.5636 16.5199 21.5636 16.328C21.5636 16.136 21.487 15.9519 21.3506 15.8162L14.0779 8.57964C13.7939 8.29702 13.3334 8.29702 13.0494 8.57964C12.7654 8.86221 12.7653 9.32045 13.0494 9.60307L19.8078 16.328L13.0494 23.0532C12.9074 23.1945 12.8364 23.3797 12.8364 23.5649C12.8364 23.7502 12.9074 23.9354 13.0494 24.0767C13.3334 24.3592 13.7939 24.3592 14.0779 24.0766Z" fill="white"/>
</g>
<defs>
<clipPath id="clip0_12_29">
<rect width="15.9209" height="16" fill="white" transform="matrix(0 1 -1 0 26 8.36768)"/>
</clipPath>
</defs>
</svg>
